<?xml version="1.0" standalone="no"?>
<!DOCTYPE svg PUBLIC "-//W3C//DTD SVG 20010904//EN"
 "http://www.w3.org/TR/2001/REC-SVG-20010904/DTD/svg10.dtd">
<svg version="1.0" xmlns="http://www.w3.org/2000/svg"
 width="489.000000pt" height="510.000000pt" viewBox="0 0 489.000000 510.000000"
 preserveAspectRatio="xMidYMid meet">

<g transform="translate(0.000000,510.000000) scale(0.100000,-0.100000)"
fill="#000000" stroke="none">
<path d="M2045 4555 c-22 -8 -51 -27 -65 -43 -14 -15 -46 -40 -71 -55 -77 -44
-186 -176 -238 -287 -43 -93 -95 -249 -117 -351 -12 -58 -31 -126 -42 -150
-39 -89 -60 -155 -67 -219 -4 -36 -13 -75 -21 -87 -8 -12 -14 -26 -14 -30 0
-4 5 0 11 10 10 18 11 18 25 0 7 -10 14 -28 14 -40 0 -12 5 -25 11 -29 6 -4 8
-20 5 -39 -4 -19 -3 -36 2 -39 21 -13 11 -80 -23 -155 -37 -84 -48 -134 -20
-97 8 11 17 17 21 14 11 -11 -18 -53 -77 -111 -71 -69 -99 -121 -89 -159 6
-20 2 -35 -16 -62 -18 -26 -22 -42 -18 -65 4 -17 10 -31 15 -31 5 0 9 -7 9
-15 0 -20 8 -19 58 10 33 19 47 22 60 14 13 -8 37 -3 100 20 l84 31 11 -30 c6
-16 16 -30 22 -30 5 1 48 7 95 14 47 7 88 11 93 9 4 -2 7 -15 7 -28 0 -12 7
-25 15 -29 17 -6 45 19 45 42 1 15 2 15 11 -1 9 -16 13 -14 30 20 10 20 19 54
19 74 0 21 7 44 15 53 19 18 19 34 1 110 -8 34 -22 99 -31 146 -9 47 -20 96
-25 110 -5 14 -12 40 -15 59 -3 18 -18 52 -34 75 -75 109 -154 319 -150 396 1
19 -1 72 -5 116 -8 82 2 146 50 322 17 61 105 202 155 248 49 45 204 87 316
86 31 0 83 -27 83 -43 0 -4 11 -25 25 -45 14 -20 25 -51 25 -68 0 -17 16 -62
35 -100 19 -39 35 -80 35 -93 0 -22 -3 -23 -37 -16 -21 4 -55 7 -75 6 -53 -2
-138 -32 -138 -49 0 -19 45 -18 100 1 104 37 168 9 200 -84 l18 -55 -28 -80
c-30 -85 -35 -138 -24 -271 5 -64 3 -75 -25 -127 -46 -88 -80 -128 -107 -128
-17 0 -47 -23 -99 -76 l-74 -75 50 -51 c27 -27 49 -54 49 -58 0 -18 31 -17 55
2 20 16 29 18 38 9 18 -18 12 -99 -12 -165 -14 -40 -17 -62 -10 -66 6 -5 8
-21 3 -45 -5 -29 -4 -36 5 -30 9 5 12 1 10 -11 -2 -11 -1 -23 2 -29 3 -5 2
-23 -1 -40 l-7 -30 -11 35 c-10 31 -11 28 -6 -30 7 -72 24 -107 24 -47 0 44
16 49 25 7 5 -22 0 -41 -20 -74 -15 -25 -28 -61 -30 -81 -3 -33 0 -37 37 -56
22 -11 43 -29 45 -40 3 -10 21 -28 39 -40 19 -11 34 -27 34 -35 0 -8 -20 -45
-45 -81 -34 -50 -43 -69 -34 -79 6 -7 8 -17 5 -23 -4 -5 6 -18 21 -29 38 -26
177 -92 194 -92 8 0 35 -20 59 -45 24 -25 50 -45 56 -45 9 0 10 -7 1 -29 -15
-39 4 -63 47 -59 27 3 31 7 34 35 3 26 -4 38 -33 66 -30 28 -33 35 -20 41 25
9 30 8 59 -19 21 -19 26 -21 26 -8 0 28 16 1 35 -57 20 -64 35 -85 35 -50 0
23 0 23 15 4 14 -18 16 -18 45 16 l29 35 -5 110 c-5 103 -4 109 11 90 9 -11
20 -19 24 -18 5 1 19 -20 31 -48 42 -89 49 -73 14 31 -19 55 -34 115 -34 133
l1 32 15 -28 c20 -37 26 -31 14 14 -5 18 -13 53 -19 75 -15 56 -15 147 0 138
8 -5 9 19 4 85 -19 243 -24 273 -46 294 -28 27 -23 68 19 149 l38 73 -28 80
c-56 160 -78 267 -78 377 -1 171 -16 294 -50 398 -17 52 -38 126 -46 164 -8
38 -25 94 -37 125 -36 88 -145 266 -204 331 -99 109 -243 182 -383 194 -41 4
-86 9 -100 11 -14 2 -43 -2 -65 -10z m-636 -1766 c-6 -23 -20 -55 -32 -70 -12
-15 -31 -40 -42 -56 l-19 -27 -8 37 c-6 29 -3 47 12 76 20 41 76 94 90 86 4
-3 4 -24 -1 -46z m448 -221 c-3 -8 -6 -5 -6 6 -1 11 2 17 5 13 3 -3 4 -12 1
-19z m507 -67 c-5 -12 -9 -8 -14 14 -3 17 -4 34 -2 39 8 15 23 -36 16 -53z
m246 -573 c23 -42 7 -42 -40 1 l-43 39 34 -7 c22 -4 39 -16 49 -33z m118 -58
c7 -11 9 -20 4 -20 -4 0 -13 9 -20 20 -7 11 -9 20 -4 20 4 0 13 -9 20 -20z
m-8 -140 c0 -5 -2 -10 -4 -10 -3 0 -8 5 -11 10 -3 6 -1 10 4 10 6 0 11 -4 11
-10z"/>
<path d="M1810 3983 c0 -5 34 -16 76 -26 42 -10 83 -21 90 -24 8 -3 14 -1 14
5 0 16 -96 52 -139 52 -23 0 -41 -3 -41 -7z"/>
<path d="M1766 3964 c-22 -22 -20 -24 9 -11 14 7 25 15 25 20 0 12 -18 8 -34
-9z"/>
<path d="M1828 3877 c-58 -11 -61 -22 -10 -32 69 -15 146 -5 125 16 -18 18
-68 25 -115 16z m62 -17 c0 -5 -5 -10 -11 -10 -5 0 -7 5 -4 10 3 6 8 10 11 10
2 0 4 -4 4 -10z"/>
<path d="M2130 3870 c-6 -11 -10 -33 -8 -48 3 -24 5 -22 17 17 14 47 9 65 -9
31z"/>
<path d="M2273 3873 c-25 -5 -27 -11 -14 -31 9 -16 151 -30 151 -15 0 5 -10
19 -22 30 -22 19 -67 26 -115 16z m17 -17 c0 -3 -4 -8 -10 -11 -5 -3 -10 -1
-10 4 0 6 5 11 10 11 6 0 10 -2 10 -4z"/>
<path d="M2215 3850 c-3 -5 -1 -10 4 -10 6 0 11 5 11 10 0 6 -2 10 -4 10 -3 0
-8 -4 -11 -10z"/>
<path d="M2163 3634 c-12 -27 -2 -32 17 -9 8 10 10 19 4 25 -5 5 -14 -1 -21
-16z"/>
<path d="M2061 3636 c-15 -18 -6 -23 29 -18 26 4 43 21 23 23 -5 0 -16 2 -25
4 -9 2 -22 -3 -27 -9z"/>
<path d="M1895 3497 c-35 -29 -30 -46 32 -112 l46 -50 9 27 c5 14 15 29 22 31
16 6 129 -24 138 -37 3 -5 25 2 50 16 89 53 101 94 33 116 -60 20 -140 28
-131 13 4 -6 12 -9 17 -6 5 4 15 3 22 -2 6 -4 17 -8 22 -8 6 -1 24 -7 40 -13
17 -7 36 -15 43 -17 7 -3 11 -9 8 -14 -3 -5 -61 -6 -128 -4 -68 3 -145 6 -172
6 -56 2 -67 16 -36 47 30 30 18 36 -15 7z"/>
<path d="M1948 3513 c7 -3 16 -2 19 1 4 3 -2 6 -13 5 -11 0 -14 -3 -6 -6z"/>
<path d="M2134 3315 c-10 -8 -14 -15 -8 -15 6 0 17 7 24 15 16 19 9 19 -16 0z"/>
<path d="M3778 2328 c-23 -42 -158 -343 -158 -353 0 -17 30 3 86 56 59 58 66
61 100 56 27 -5 33 -3 26 6 -6 7 -11 17 -12 22 -2 6 -4 15 -5 20 -16 54 -5
102 33 143 6 7 12 19 12 25 0 8 3 8 11 0 7 -7 10 -35 7 -73 -4 -61 -4 -61 14
-38 l18 23 0 -27 c0 -15 5 -30 12 -34 8 -5 9 0 5 16 -3 13 -1 30 5 37 9 11 7
15 -10 20 -18 4 -22 13 -22 44 0 29 -5 41 -17 46 -10 4 -32 17 -49 30 l-32 24
-24 -43z"/>
<path d="M3955 2176 c4 -19 2 -32 -7 -37 -7 -5 -8 -9 -3 -9 6 0 16 4 23 9 12
7 11 13 -3 37 l-16 29 6 -29z"/>
<path d="M4026 2188 c-3 -7 -7 -26 -9 -43 -3 -16 -9 -39 -12 -50 -7 -20 -6
-20 9 -1 9 11 16 35 16 53 0 18 5 33 10 33 6 0 10 -4 10 -8 0 -5 7 -17 15 -28
13 -17 13 -15 3 19 -11 36 -35 50 -42 25z"/>
<path d="M1861 2154 c0 -11 3 -14 6 -6 3 7 2 16 -1 19 -3 4 -6 -2 -5 -13z"/>
<path d="M4110 2130 c11 -20 30 -28 30 -12 0 11 -22 32 -32 32 -5 0 -4 -9 2
-20z"/>
<path d="M1792 2040 c-18 -29 -31 -54 -29 -56 6 -6 68 88 65 98 -2 6 -18 -13
-36 -42z"/>
<path d="M1898 2073 c-9 -10 -21 -29 -28 -43 -12 -23 -12 -24 3 -11 14 11 50
71 43 71 -2 0 -10 -8 -18 -17z"/>
<path d="M1830 1980 c-9 -16 -8 -18 5 -14 8 4 15 12 15 20 0 20 -7 17 -20 -6z"/>
<path d="M2220 1935 c-17 -25 -29 -45 -26 -45 3 0 19 20 36 45 17 25 29 45 26
45 -3 0 -19 -20 -36 -45z"/>
<path d="M1898 1909 c33 -22 43 -35 17 -25 -8 3 -15 1 -15 -4 0 -5 16 -8 36
-7 22 1 39 -3 41 -11 3 -8 -1 -10 -13 -5 -12 4 -15 2 -12 -8 3 -8 18 -18 34
-24 16 -5 30 -10 32 -11 1 0 -5 -17 -13 -37 -15 -35 -14 -37 4 -37 11 0 26 9
34 20 8 11 17 17 20 14 8 -8 37 14 37 28 0 5 -9 6 -20 3 -17 -5 -20 -2 -20 20
0 33 -41 75 -73 75 -14 0 -41 7 -60 15 -52 21 -68 18 -29 -6z"/>
<path d="M2154 1845 c-15 -20 -25 -38 -22 -40 3 -3 17 13 32 35 33 49 27 52
-10 5z"/>
<path d="M4695 1859 c-16 -6 -14 -8 13 -8 33 -1 41 4 20 12 -7 2 -22 1 -33 -4z"/>
<path d="M1722 1820 c0 -14 2 -19 5 -12 2 6 2 18 0 25 -3 6 -5 1 -5 -13z"/>
<path d="M2298 1825 c-3 -3 -20 -8 -39 -10 -19 -2 -35 -9 -37 -15 -2 -5 -8 -7
-13 -4 -16 9 -51 -32 -156 -187 -133 -193 -233 -320 -247 -312 -35 20 -101 68
-104 75 -9 20 -32 4 -57 -39 -15 -27 -38 -61 -50 -78 -12 -16 -35 -63 -51
-104 -40 -104 -103 -142 -173 -105 -20 10 -39 20 -43 22 -5 2 -8 -1 -8 -6 0
-5 21 -17 48 -27 26 -10 54 -24 63 -31 8 -8 21 -14 27 -14 6 0 9 -7 6 -15 -4
-8 -2 -15 4 -15 5 0 12 9 15 21 4 16 11 19 26 14 14 -4 21 -2 21 6 0 7 3 9 6
6 4 -3 15 -2 25 4 25 13 31 -12 27 -122 l-3 -87 25 18 c14 9 43 23 65 30 22 7
46 17 52 22 7 6 20 8 28 4 10 -4 19 2 25 18 8 21 28 36 55 42 44 9 55 18 55
46 0 45 67 177 96 188 14 6 24 18 24 29 0 19 18 38 54 56 11 6 21 17 21 25 0
8 6 21 13 29 12 12 15 12 24 0 7 -10 8 -8 3 9 -7 25 26 65 64 77 12 3 23 21
30 50 6 24 25 64 41 89 17 25 36 60 42 78 6 17 24 43 40 56 15 13 28 29 28 36
0 7 9 21 20 31 27 24 25 45 -3 45 -14 0 -26 9 -32 23 -9 21 -44 35 -57 22z"/>
<path d="M1760 1807 c0 -20 27 -77 36 -77 4 0 3 12 0 28 -4 15 -3 22 1 16 4
-6 18 -14 31 -18 12 -4 22 -12 22 -18 0 -5 -7 -8 -15 -4 -8 3 -15 1 -15 -3 0
-5 7 -11 15 -14 8 -4 26 -24 40 -47 28 -45 39 -49 55 -20 8 16 7 26 -7 45 -10
13 -23 25 -29 25 -7 0 -28 16 -47 35 -19 19 -42 35 -51 35 -8 0 -20 8 -25 18
-10 16 -10 16 -11 -1z"/>
<path d="M1810 1702 c0 -10 26 -34 50 -47 8 -4 2 6 -14 23 -32 34 -36 37 -36
24z"/>
<path d="M1653 1564 c-21 -18 -32 -33 -25 -34 6 0 20 8 30 18 11 11 28 21 39
24 16 4 19 2 16 -13 -3 -12 0 -19 8 -19 10 -1 8 -4 -3 -11 -21 -12 -24 -29 -4
-29 15 0 26 30 26 70 0 38 -41 35 -87 -6z"/>
<path d="M1946 1571 c-10 -11 -15 -25 -11 -32 6 -8 13 -3 22 15 18 34 12 43
-11 17z"/>
<path d="M1609 1408 c-35 -40 -80 -89 -99 -109 -54 -56 -121 -141 -116 -146
11 -11 103 77 189 180 122 145 123 147 104 147 -8 0 -43 -32 -78 -72z"/>
<path d="M1694 1416 c-8 -22 -2 -27 16 -16 12 7 12 12 3 21 -10 10 -14 9 -19
-5z"/>
<path d="M1803 1376 c-10 -11 -9 -15 2 -20 10 -4 15 1 15 14 0 23 -1 24 -17 6z"/>
<path d="M2932 1270 c0 -14 2 -19 5 -12 2 6 2 18 0 25 -3 6 -5 1 -5 -13z"/>
<path d="M2945 1100 c4 -6 11 -8 16 -5 14 9 11 15 -7 15 -8 0 -12 -5 -9 -10z"/>
<path d="M2996 995 c-8 -22 -8 -22 9 -22 17 0 18 6 6 25 -7 11 -10 10 -15 -3z"/>
<path d="M1458 944 c-4 -3 -4 -13 -1 -22 4 -8 2 -13 -3 -10 -14 8 -69 -27 -68
-43 1 -8 4 -21 6 -29 3 -8 3 -12 0 -7 -4 8 -44 -32 -77 -77 -41 -56 -153 -156
-174 -156 -6 0 -11 -5 -11 -11 0 -5 -5 -7 -11 -3 -8 5 -8 9 1 14 7 4 8 10 4
13 -12 7 -33 -18 -26 -30 36 -55 214 20 279 116 13 19 32 62 42 96 11 33 28
77 39 97 11 19 17 40 13 47 -4 6 -10 9 -13 5z"/>
<path d="M3045 869 c-11 -4 -15 -8 -8 -8 7 -1 10 -7 7 -15 -4 -11 0 -13 15 -9
27 7 32 15 17 29 -7 6 -20 8 -31 3z"/>
<path d="M3064 785 c9 -14 24 -37 33 -52 36 -57 78 -92 101 -86 12 3 22 9 22
13 0 14 -53 60 -69 60 -9 0 -22 12 -28 28 -7 15 -27 35 -44 45 l-32 18 17 -26z"/>
<path d="M3331 93 c-1 -18 4 -33 9 -33 12 0 12 17 0 45 -7 17 -9 15 -9 -12z"/>
</g>
</svg>
